<?xml version="1.0" encoding="utf-8"?>
<!-- Generator: Adobe Illustrator 13.0.0, SVG Export Plug-In . SVG Version: 6.00 Build 14948)  -->
<!DOCTYPE svg PUBLIC "-//W3C//DTD SVG 1.1//EN" "http://www.w3.org/Graphics/SVG/1.1/DTD/svg11.dtd">
<svg version="1.1" id="Layer_1" xmlns="http://www.w3.org/2000/svg" xmlns:xlink="http://www.w3.org/1999/xlink" x="0px" y="0px"
	 width="168.262px" height="89.474px" viewBox="0 0 168.262 89.474" enable-background="new 0 0 168.262 89.474"
	 xml:space="preserve">
<metadata><?xpacket begin="﻿" id="W5M0MpCehiHzreSzNTczkc9d"?>
<x:xmpmeta xmlns:x="adobe:ns:meta/" x:xmptk="Adobe XMP Core 4.1-c036 46.277092, Fri Feb 23 2007 14:17:08        ">
   <rdf:RDF xmlns:rdf="http://www.w3.org/1999/02/22-rdf-syntax-ns#">
      <rdf:Description rdf:about=""
            xmlns:dc="http://purl.org/dc/elements/1.1/">
         <dc:format>image/svg+xml</dc:format>
         <dc:title>
            <rdf:Alt>
               <rdf:li xml:lang="x-default">Logo</rdf:li>
            </rdf:Alt>
         </dc:title>
      </rdf:Description>
      <rdf:Description rdf:about=""
            xmlns:xap="http://ns.adobe.com/xap/1.0/"
            xmlns:xapGImg="http://ns.adobe.com/xap/1.0/g/img/">
         <xap:CreatorTool>Adobe Illustrator CS3</xap:CreatorTool>
         <xap:CreateDate>2023-11-13T10:34:49Z</xap:CreateDate>
         <xap:ModifyDate>2023-11-13T10:34:50Z</xap:ModifyDate>
         <xap:MetadataDate>2023-11-13T10:34:50Z</xap:MetadataDate>
         <xap:Thumbnails>
            <rdf:Alt>
               <rdf:li rdf:parseType="Resource">
                  <xapGImg:width>256</xapGImg:width>
                  <xapGImg:height>136</xapGImg:height>
                  <xapGImg:format>JPEG</xapGImg:format>
                  <xapGImg:image>/9j/4AAQSkZJRgABAgEASABIAAD/7QAsUGhvdG9zaG9wIDMuMAA4QklNA+0AAAAAABAASAAAAAEA&#xA;AQBIAAAAAQAB/+4ADkFkb2JlAGTAAAAAAf/bAIQABgQEBAUEBgUFBgkGBQYJCwgGBggLDAoKCwoK&#xA;DBAMDAwMDAwQDA4PEA8ODBMTFBQTExwbGxscHx8fHx8fHx8fHwEHBwcNDA0YEBAYGhURFRofHx8f&#xA;Hx8fHx8fHx8fHx8fHx8fHx8fHx8fHx8fHx8fHx8fHx8fHx8fHx8fHx8fHx8f/8AAEQgAiAEAAwER&#xA;AAIRAQMRAf/EAaIAAAAHAQEBAQEAAAAAAAAAAAQFAwIGAQAHCAkKCwEAAgIDAQEBAQEAAAAAAAAA&#xA;AQACAwQFBgcICQoLEAACAQMDAgQCBgcDBAIGAnMBAgMRBAAFIRIxQVEGE2EicYEUMpGhBxWxQiPB&#xA;UtHhMxZi8CRygvElQzRTkqKyY3PCNUQnk6OzNhdUZHTD0uIIJoMJChgZhJRFRqS0VtNVKBry4/PE&#xA;1OT0ZXWFlaW1xdXl9WZ2hpamtsbW5vY3R1dnd4eXp7fH1+f3OEhYaHiImKi4yNjo+Ck5SVlpeYmZ&#xA;qbnJ2en5KjpKWmp6ipqqusra6voRAAICAQIDBQUEBQYECAMDbQEAAhEDBCESMUEFURNhIgZxgZEy&#xA;obHwFMHR4SNCFVJicvEzJDRDghaSUyWiY7LCB3PSNeJEgxdUkwgJChgZJjZFGidkdFU38qOzwygp&#xA;0+PzhJSktMTU5PRldYWVpbXF1eX1RlZmdoaWprbG1ub2R1dnd4eXp7fH1+f3OEhYaHiImKi4yNjo&#xA;+DlJWWl5iZmpucnZ6fkqOkpaanqKmqq6ytrq+v/aAAwDAQACEQMRAD8A9U4q7FXYq7FXYq7FXYq7&#xA;FXYq7FXYq7FXYq7FUPf6jYafbNdX1xHa2yfamlYIo9qnvirzrXvz20C2doNEtZdVnGwk3hh+gkF2&#xA;/wCBHzwgWgkDmwvUfzU/MXUSRDNDpcLfswIC1P8AWk9Vq/KmWDEWmWoiEgurzzJe1N9rd5PXqrSy&#xA;FfoBan4ZMYfNqOq7ggJNIgcl5ZpGPdmYdB7kYfBDH8zLuQ0Et8J+Gm3M6Km3qiRkAHtxplXBZ2cj&#xA;xOEXJkFn5k892NDba/ckjok0jSoP9jJ6g/DJ+CWsaodzIdO/OXz5YkC/trfU4h9pgvpSH5GOi/8A&#xA;CZA4iGyOeJ6sy0L88fKl8yw6kkuk3B2Pqj1Iq+HqIK/8Eoyum4Fn9nfWd7bpc2c8dzbvuk0TB0Py&#xA;ZSRiqtirsVdirsVdirsVdirsVdirsVdirsVdirsVdirsVdirsVdirsVdirzTzr+c2n6bI+neXkXU&#xA;tSFVaetbeM/Mf3hHsae/bCBaCQNy8n1K51rXbr65r17Jdy78IiaIgPZVFFUf6oy+OHvcSep/mtxx&#xA;RRLxjUKvgBlwADiykTzXYUOxVL9RkkllSyiNC+8h8BlOQ2eEOThAA4ijYII4IljQUUfifHLYig0S&#xA;kZGyvwsXYqslghmFJEDD3wGIPNlGRHJ2mXOt6Fc/W9BvpLSXq0YNUenZlNVb/ZDKZYe5yYan+c9U&#xA;8m/nVY30qaf5kjXTb40VboVFu5/yq1Mf0kr7jKCKcuMgdw9PBBAINQdwRgS7FXYq7FXYq7FXYq7F&#xA;XYq7FXYq7FXYq7FXYq7FXYq7FVk00MELzTOscMal5JHIVVVRUkk9AMVeFef/AMzr/wAxzzaRoLtb&#xA;aKpKT3Qqr3A6H3VD2Xqe/hk4QJa8mQRDEba0ht04xjf9pj1OZUYgOvnkMjurZJg7FXYq7FUu08ep&#xA;fXcx6huK/Kp/plMN5EuTm2hEJjlzjOxV2KuxV2KqVxbQ3CcJFr4HuPlkZRB5s4TMTsyjyF+ZOo+V&#xA;riLS9XdrrQHIWKXdnt/de5XxX/gfA4s4EOfjyiQe821zb3NvHcW8iywSqHilQhlZWFQQR2yDaqYq&#xA;7FXYq7FXYq7FXYq7FXYq7FXYq7FXYq7FXYq7FXhv5r+e5tc1F/LWky00y1al/cKdpZFO6g90Q/e3&#xA;sBk4RsteTIIi2HQwxwxiOMUUf51OZYFOulIyNlfhYuxV2KuxV2KpdaH0NTuIW2Evxp+v+OUx2kQ5&#xA;OT1Ywe5McucZ2KuxV2KoaC8M13LEq/u4x9v3rkIzs02yx1EHqUTk2pbLEksZjcVVuowEWmMiDYZl&#xA;+UfnaXR9SXyxqctdPum/3HTOdo5WP2P9WQ9uzfPMScaLsseQSFvcMg2OxV2KuxV2KuxV2KuxV2Ku&#xA;xV2KuxV2KuxV2KsJ/NnzfJ5e8tGO0crqepE29oV+0op+8kH+qCAPcjFXhtjai3gC/ttvIffMyEaD&#xA;rMuTiKIybW7FXYq7FXYq7FUJqFm0yrLEaTx7qfH2yvJG9xzbsOTh2PIrbPUo5P3c37ucbFTsCfau&#xA;MMl8+acmEjcbhG5Y0OJAFTsPHFUvu9RLn6vafvJW25joPllMsnQOTjw16pckRY2i20ITq53dvE5O&#xA;EaDVlycRtEZNrdiqG1C2M0FUqJY/ijYdajK8kbDbhnwye/8A5aeaj5k8q291Mwa+t/8ARr3xMiAU&#xA;c/66kN865iOyZVirsVdirsVdirsVdirsVdirsVdirsVdirsVfP8A+auqNqv5gyW1a22kRLCg7FyA&#xA;7n58np/sctxCy0aiVR97H8ynXuxV2KuxV2KuxV2KuxVQubG2uP7xfi/nGxyEoAtkMso8kN+i502h&#xA;unVeymv8DkPDI5Ft8cHnF36Jdz+/uXkH8v8Atk4+FfMr+YA5CkXBawQLSJQtep7n6csjEDk0zmZc&#xA;1XJMHYq7FXYqyz8ltWOn+cbvR2akGqRGSJf+LYauKf7Dn92YeQUXZYZXF7pkG12KuxV2KuxV2Kux&#xA;V2KuxV2KuxV2KuxV2Kvl+/mNz5n166J5GW9mII6UMrkUzIw9XD1R5Oy9xHYq7FXYq7FXYq7FXYq7&#xA;FXYq7FVk8yQxNI5oq/j7YCaDKMTI0GTeS/ypv/Nemy6vqVy+nwSimlqqhixB/vGU0+Dw7t16dcOU&#xA;iS7KGMRFJfrXkLz35fZvWsjqdmp+G6tKybe6gc19+S/Tk45SGqenieWzHv0vbqSsqPG67MrDcHLR&#xA;mDQdNJptasx0Dt8gP4nHxgo00kx0O/8AqfmzQNSjNFFzEHPf03YKw/4FjkMu9Ft021h9PZQ5TsVd&#xA;irsVdirsVdirsVdirsVdirsVdirsVfLRVk1jVo2FHS7lDD3DsMyMPJwtVzCrl7iuxV2KuxV2KuxV&#xA;2KuxV2KuxV2Ko/yZ5Z/xX5ti0+Wv6Nsl9e+ptyVSBwr4sxC/KuYuWVmnP08KF976PiijhiSKJBHF&#xA;GoWNFFFVVFAAB0AGVOQxvzn+YGi+Ufqn6ShuZTec/SFuitT0+PKpd4x+2OhxViN1+eXkK5FZdJvL&#xA;hx9kSwW5/EytirB/OHne480RLYafpkekaTyDzcQvqSlfs8mCrsP5R375ZHGS1TzRix2/XgLRYwKr&#xA;KgQHpt0rluUbOPpjci+rsxnNdirsVdirsVdirsVdirsVdirsVdirsVdir5p8zWhsfPnmC1I487l5&#xA;1XwWU+qKU9pMvwlxdUNgUuvboW0POnJieKr4k5bOVBxsWPiNLbi5urGf6vqlnNYz/wAkyMpp40YA&#xA;5AZh1bZaYjkrxyxyryjYMviMtBtxzEjmuwodirsVdirsVUnvLVDRpVB8KiuRMgGYxyPRVBBAINQd&#xA;wRkmDmIVSx6AVOBQ9P8AyC00JoOo6q4/fX116YP+RCtR/wANI2YRLtgKFPUcCXm/58aes/k+G8A/&#xA;e2V1GwfwWQFCPpYriryaNuaK38wB+/M4OpIot4UN6fZnUPNGiacByE93F6g6/BzHI/8AA1yjMXL0&#xA;o5l9P5juY7FXYq7FXYq7FXYq7FXYq7FXYq7FXYq7FXh/53aSbDzVYa2i0gv4vRnbt6sW1T/sGX7s&#xA;njNFryx4okMLjiSbXNGgkFY5byJXHiDIoP68tzdHH0vMvpvUNM07UrZrbULaK6t26xzIHXwqK9D7&#xA;5juY8A/Mby1pflvzrBZ6SrRWl3ai4eAsWCsXkWik78f3Y6k5ZiPqaNQPSk+Zbr1L09RutSs9O09V&#xA;e6u34RK5CgsdgOTEAZVkmRycjBiErtP/APlWn5n8+H6LiA/3768FP+Ttfwyrxi3/AJaKLtvyg/MW&#xA;4I9WSzswevOTkf8AhEkwHLJI08E8sPyCeSjavrkkg/aht46D6Hct/wAQyJkS2iAHIJprv5S+StJ8&#xA;pavcW9q8l5b2U8sV1PIzuGijLghQVTqv8uRZPIdMYtYxE+BH3EjMzH9Lrc49ZVLw0tJj/kN+rDPk&#xA;WOP6g9z/ACgt1h/LzSqdZBNIx92nen4UzCdozLFWB/nbKqeQLpT1lmgVfmJA36lxV4xbikEY8FX9&#xA;WZ0eTqp8yvwsWV/kxpB1Lzlc6wy1ttKiKRN29WUFB/wvM/dmHklZdlhjUXuuQbXYq7FXYq7FXYq7&#xA;FXYq7FXYq7FXYq7FXYqxz8wPKqeZvLNzpygfW1pNZOe0yV479gwJU/PFXzlZXckGqab9YBjubG8j&#xA;EyOCCCkgrUdduO+WSlYDTCHDI9xfWGVtzwT837gT/mPGgNfqtlHGfavN/wDmZlmL6mjUH0MazLde&#xA;v0ucWvm3y/csaJHfQ8zt9n1Ur19q5Rm6OXpTzfTuY7mOxV2Ksb/Me6Ft5F1uQmnK1eLw/vf3f/G+&#xA;KvnrTV42MI9q/ea5mY/pDrcxuZXahX6lNT+U4z5FGL6g9/8AywMZ8g6Lwpx9ChptuHbl+OYbs2UY&#xA;q8q/P+/A0fSdKU/Hd3RmIHXjCnH9cwwgWiRoW80AoKZnOpQ2oXBhg4pvLJ8EYHWp8MrySoN2GHFJ&#xA;9Aflr5V/w35VtrWVeN9cf6RfeIlkA+D/AGCgL88xHYspxV2KuxV2KuxV2KuxVBaVrOnatBJcafMJ&#xA;4I5XgMq/ZLx7NxPcV74qjcVdirsVdirsVQV7rOnWV5Z2VxMFu9Qcx2kHVnKqWY0/lUDc4qjcVeU/&#xA;mx+Vs2qStr+gxg6hSt7aLsZuI2kj/wAvbcftfPqq9PsLhrmxtrhgVaaJJCpBBBZQaEHp1xV87fmJ&#xA;Pd/8rE1m4ltZiOSRRgKfspGiqwqOhC1yzHKi1ZsZkKCSfX5P+WSf/gDlvjBxvysu9RuJryaSA21p&#xA;P68civH8DVLA7Acd+uQyTEg3YcJid31gjFkViCpYA8T1FexylyHPJGgBdgoJCgsabsaAb9yTTFW8&#xA;VYH+dRvW8jyW9pBJObm4hjlWJS5CKTJyYKDtyjAxV4lENTjiRP0XdfAoX+6fsKeGZAygBw5aYk3b&#xA;U66pLA8Y0y6BdSAfSfv9GCWUEJhpyCDb378qYrmLyBpMdzE0MyrKDG6lWA9eTiSDvutDlDlsrDoX&#xA;KBhzUAla7gGoBp70OKvA/wA5b2+n8+LHJbTG10+CNICEJVy6+ozqeh3fif8AVyUDRthkiTGgxH6/&#xA;J/yyT/8AAHL/ABg4n5WXezj8p/JV1rGtjzDqcDR6dYN/oUUi09WYbqaHqqda/wA1PA5TOVlysWPh&#xA;FPc8g2OxV2KuxV2KvGf+hi/+/f8A+nz/AK8Yq7/oYv8A79//AKfP+vGKo381POWpzeQNIu7ImyTX&#xA;QDdRq3JhG0fL0w9F2Nd9t8VTr8jv+UDi/wCYmb9YxVn+KuxV2KuxV2KvnTybrOpax+blhe6hMZp2&#xA;uJVBPRVWOQKqjso8MVfReKuxV2KuxV2KuxV2KvDNT89anr/5paXpxrBpmn6mkUNsD9t45OBlfxY0&#xA;28B9JKr3PFXYqwPX/wA29JsLl7bT7c6hJGSryhxHFUfytRi33U98ujhJ5uNPUgct0pi/OuTmPV0k&#xA;cO/CY1/FMl4Hmw/NeTKpPPVu/k248yWtu5EXwLBLQH1C6xipUn4avXK/D9VN3jejiCRflNqd9ql9&#xA;r17eymW4lNsWY9AP3tAB2A7DJZRVNemkSSS9FylynYq7FXYq7FXYq7FXYq+SPK2o6Zpuv2d7qlqL&#xA;2whZjPalUkDgoQBxf4TuQd8KvS/+VnflR/1KEf8A0iWeBUV+eX1X/Cvl82kK29qzloYEUIqIYgVU&#xA;KuwoPDFUb+W/mK08u/lNLq10CyW883CIGheRmCog+ZP0DfFWPaVr35t+e7i6m0m8WxsoTQiNhBGh&#xA;bcIHAaRmp/mMVa0j8y/OvlbzR+h/NUxurZJFjuxJxLxq9CJY5FALDiwah6jwxVM/za/MDzdoHmlL&#xA;HSb/AOrWptY5TH6UMnxszgmsiO37I74qlWseYfzrudJTXGSay0qOFH526xISvHeZ0qZfi+0TTiPY&#xA;Yqyf8nvzI1PXp59G1mQTXkUfrW11QKzopCsjhQASOQIPzxV5HoF/qmn+borvSbf63qMc0otbfiz8&#xA;nYMv2V3NOVcKsh1vzn+bmiX8UmrXVzZyzfvIY3SMRMB1AUKUNK7jAr1mx81a1rn5aNrelxFdbeB1&#xA;jjiQP+/jfgSiMGBrTkAa4qwU6J+ftzB9aa7mR/tLb/WIY3P+xUhPoJxVT/Lr81PNJ8y22ia5KbyC&#xA;6l+r1kRVmilOy7qFr8WzBsVRP5q/mH5x0LzbJYaVqH1e0WGJxF6MD/EwNTykRm/HFUo13zf+cU1g&#xA;usyx3Om6UqqQ8UQjWjUAdyRz+Ko3+z4YqyDyD5/84eYfL+s6ZFIJ/MVpAJdNuaRKzgsFIfnSOq7b&#xA;kd98VeW2f+I/8XJ9W/5SL66eH91/vX6hr9r919v/AGOFXvn5d/8AKy/Wvv8AGX91xj+pf7y/aq3P&#xA;/eb2p9rArKtaiuZtHv4rUkXMlvKkBHX1GQhafThjzYyGxp8+6DqFvpWswXd3ZreRQMfUtZNqmhHc&#xA;EVU77jMyQsOthKjZD02Hz5+XusRi21KzEAb4aXEKsoJ/lePkV+e2UeHIcnLGaEuaXeedJu9M8qxw&#xA;aA5k8syFpr1ucUgq8qGLix+Mry6cfpyUDZ35sMsSI+n6WM+Sf8b/AOm/4X/4q+uf7z/5fp/3/wDs&#xA;vs5OfD1asXHvwst8z+fte0TTLHTX4jX3hEl/OwjYRkk8QFT92WNK+H35XHGCb6N2TNKIA/iSVp/z&#xA;VTS/06bi4+p8PV5ck/uzvz9L+Xv9np7ZL0XTXeSuJln5d+fbjXWk0/UQv1+JPUjmQcRKgNGqvQMK&#xA;jp/DK8mOtw34M3FsebDrT8x/PB1X0YpjfHm6x2ggjPM7gD92gfbrsctOONNAzztT1fzP+ZOl3Ucu&#xA;ozz2jTEvEjIgjIFKgKAV2qKjERieSJZMgO70Kw89QnyQPMN4gEyAxyQpsHmDcQFrWnLr7D5ZScfq&#xA;pyhm9HEWHadqv5kebpbibT7oWlrEeJCMIY1J3ChgGdjTLSIx5tEZZJ8m9J8+eaNC8wfovzDJ68Ky&#xA;CO5EnEtGHoRIrrSooQd+2Jxgiwsc0oyqTzDyDb6Vceb9Nh1YRHTndxcCdgsdPTYjkSQPtUzGc17l&#xA;/hv8nf8Afelf8j4/+a8VY1+fTWp8uaGbRka29ZhC0ZDIUEYC8SKgimKsZlt7iX8i4Hirwg1QyT0F&#xA;fgPJN/8AZuuKpb+XflKfzILm3tNf/Rd1Ewb6mOdZFI+2vF0rTocVT7Xvydh02I3ut+bIIQdvUnjY&#xA;u1NqKDIWb6MVS788ozH5xgjJqUsIFJ8aM4xV65c6pp2n/llHcXsiLCdJRFViP3jNbhRGtepYmmKv&#xA;IvyNtZ5vPSSx19O3tpnmI6cWAQA/7JhiqA/LX/yZ2nf8xE3/ACbkxVn3/OQ0anS9Hk/aWeVR8mRS&#xA;f+I4qk+jebb/AMtfk5DcafRb27v5baKUivpggszgHYmi0FcVS/yX5N8wefre61HUPMEscEMvouJG&#xA;eeRjxDH4S6hVo1B9O2KpF5XsorH8zrCyhmFxDa6oIY7gUpIsc3EOKEj4gK9cVTT88f8AlPJf+YeH&#xA;9RxV6/5nVW/K69BAI/RVaHxEIIxV5n/zj5/yk2o/8wX/ADNTFWO6bLHB+bMbzMI0XWm5M2wFbkjf&#xA;wxV9Ncl5cajkBUr3oe+KqGo3sdjp91eyKWjtYnmdVpUiNSxAr32wgWUSNC2Gtp/5b+cP9LR0ivZR&#xA;WTg4gnr35Rn4WP8AlUPzyy5RaOHHPdg3nryhpegNA1jqIufWJBtnKmVABXkSm1PoGXY5kuNmxCPI&#xA;o/SZLpvyl1tJKmCO5iEFe1ZYSwHtXfIn6wzjfhFMvyTljEusRFgJGW3ZV7lVMgY/RyGDP0ZaXqx3&#xA;80I5F853cjbxzJC8J6gqIlTb/ZKcni+lq1H1vWZtV0z/AAg1+ZE+otZ1BqAKGOnD51+GnjtmPR4q&#xA;c0yHDfSnlf5URSv5whZASsUUrSHwUrx3/wBkwy/L9Lh6cepDeRf+U9sf+M8v/EHw5PpRi+sMy/Ok&#xA;D9GaaabiZ9/9hlWHm36rkGOTwzSflLbtGCUi1EvNTspDLv8A7Jhln8bUR+6+KE8k+Wp9djnittZ+&#xA;oTxNX6p8VXUj7Yo616UO2Gcq6McUOLrSbat+WMdkBPqnmKKNnIAaVGLsegABcs30ZEZb5BslgrmU&#xA;P/0Lp/38H/Tn/wBf8xnNd/0Lp/38H/Tn/wBf8Vd+b+hzad5Q8r6LCzXc1vJ9WjZEIaRhGFFEBbdv&#xA;CpxVmv5f+TpdN8jJomtxRym59R7q2PxKFl34E+IHh36Yqw/V/wDnH2JrlpdH1UwRE1SC4jLlPlIh&#xA;Ffb4cVU7L/nHyaScSaprfNK/EsMRLsP9eRtv+BOKsf8Az5/5TeP/AJgov+JyYqmln+Qkl9Y2V7b6&#xA;wI4ruCKZo5ICzIZEDEAhwG3Ptir07yV5F0fynYtBZVluZ6G6vJPtyFa0FOiqK7AYqxby1+S/6E8z&#xA;22ufpj6x9XkeT6v9W4V5qy05+q1KcvDFWQfmH5C/xhZ2lt9e+o/VZGk5+l63LkvGlOcdMVQVr+VW&#xA;nr5Hbyre3bXKiZriG8SMRskh+yQhZ+lSDvuDirEbP/nH28S5IuNcC2ZNH9GJhI6+FC3EbfPFU20j&#xA;8jYNL8yW2r2+rk29pci4htGt6twV+SxmX1dzTblx+jFUX54/KD/FOvPq36W+p8o0j9H6v6v2BSvL&#xA;1U6/LFWYanoP17yvPoXr+n61p9U+s8OVPg4c+HIfdyxVjP5fflb/AIQ1O5vv0n9e+sQ+h6foejx+&#xA;NW5V9SSv2fDFUq84fkha6zrFxqmn6h9Sku3MtxBJH6iGRt2ZSGUjkdyDXfFU6/Ln8uJvKEt9NLqA&#xA;vmvFjTiIjHxEVabl2r9rwxVmF/ZxX1jcWUxIiuonhkK7MFkUqaE13ocINIIsU82vPyV+Mmy1T4P2&#xA;Umi3HzZW3/4HLhm8nFOl7iusPyWUSK2oakWjH2o4I+JP+zYmn/A4nN3KNL3lnbeW9I/QL6GkPp6e&#xA;8Zj4L1Fd+VTX4uXxVPfKuI3bkcA4a6MAk/JacTMYNWAj34lojyoexo+XeN5ON+V82R3/AOW+m32g&#xA;WWmzzEXdhH6cN+iAEipJDISarv05fTlYyEG204AYgdzGB+TGpV9M6rH6PKv921fCvGtK/TlnjDua&#xA;vyp72ceU/J2meW7Z0tyZrmanr3LgBmp0AA+yvtlU5mTkY8QikOhflb+iteg1b9J+t6Ls/o+hxryU&#xA;inL1G/m8MnLLYqmqGnqV2nPnTyf/AImtbaD639U+ruX5en6nKopSnJKZCE+Fsy4uMKnl/wAo22l+&#xA;XX0O6kF/byF/VLJ6YZZO1OTUp41xlOzaYY6jR3YlqP5MxmcyaZqJijJqsUycivydSP8AiOWDN3tE&#xA;tL3Fqw/JyUXKTX+qcwjAlYoyWND/ADudvuxObyUabvL03KHLdiqhNY2c9xBcTQrJPalmt3YVKFxx&#xA;Yr4EjauKq+KuxV2KvHPzD8k6p5r/ADLitbUenax2cDXl4wqkSF5PvY/sr/DFXrlhZx2Vjb2cRJit&#xA;okhQt9orGoUVpTegxVXxV2KuxV2KuxV2KuxV2KuxV2KuxV2KuxV2KuxV2KuxV2KuxV2KuxV2KuxV&#xA;2Kv/2Q==</xapGImg:image>
               </rdf:li>
            </rdf:Alt>
         </xap:Thumbnails>
      </rdf:Description>
      <rdf:Description rdf:about=""
            xmlns:xapMM="http://ns.adobe.com/xap/1.0/mm/"
            xmlns:stRef="http://ns.adobe.com/xap/1.0/sType/ResourceRef#">
         <xapMM:DocumentID>uuid:9DEE79451082EE11A2B6EC2DDE55862A</xapMM:DocumentID>
         <xapMM:InstanceID>uuid:9EEE79451082EE11A2B6EC2DDE55862A</xapMM:InstanceID>
         <xapMM:DerivedFrom rdf:parseType="Resource">
            <stRef:instanceID>uuid:9995870c-0866-4e4a-97ad-b64426c092b1</stRef:instanceID>
            <stRef:documentID>uuid:4AA621ED6B2EE211927EE1CFAF89878B</stRef:documentID>
         </xapMM:DerivedFrom>
      </rdf:Description>
      <rdf:Description rdf:about=""
            xmlns:xapTPg="http://ns.adobe.com/xap/1.0/t/pg/"
            xmlns:stDim="http://ns.adobe.com/xap/1.0/sType/Dimensions#"
            xmlns:xapG="http://ns.adobe.com/xap/1.0/g/">
         <xapTPg:MaxPageSize rdf:parseType="Resource">
            <stDim:w>74.999987</stDim:w>
            <stDim:h>45.000015</stDim:h>
            <stDim:unit>Millimeters</stDim:unit>
         </xapTPg:MaxPageSize>
         <xapTPg:NPages>1</xapTPg:NPages>
         <xapTPg:HasVisibleTransparency>False</xapTPg:HasVisibleTransparency>
         <xapTPg:HasVisibleOverprint>True</xapTPg:HasVisibleOverprint>
         <xapTPg:PlateNames>
            <rdf:Seq>
               <rdf:li>Cyan</rdf:li>
               <rdf:li>Magenta</rdf:li>
               <rdf:li>Yellow</rdf:li>
               <rdf:li>Black</rdf:li>
            </rdf:Seq>
         </xapTPg:PlateNames>
         <xapTPg:SwatchGroups>
            <rdf:Seq>
               <rdf:li rdf:parseType="Resource">
                  <xapG:groupName>Default Swatch Group</xapG:groupName>
                  <xapG:groupType>0</xapG:groupType>
                  <xapG:Colorants>
                     <rdf:Seq>
                        <rdf:li rdf:parseType="Resource">
                           <xapG:swatchName>White</xapG:swatchName>
                           <xapG:mode>RGB</xapG:mode>
                           <xapG:type>PROCESS</xapG:type>
                           <xapG:red>255</xapG:red>
                           <xapG:green>255</xapG:green>
                           <xapG:blue>255</xapG:blue>
                        </rdf:li>
                        <rdf:li rdf:parseType="Resource">
                           <xapG:swatchName>Black</xapG:swatchName>
                           <xapG:mode>RGB</xapG:mode>
                           <xapG:type>PROCESS</xapG:type>
                           <xapG:red>35</xapG:red>
                           <xapG:green>31</xapG:green>
                           <xapG:blue>32</xapG:blue>
                        </rdf:li>
                        <rdf:li rdf:parseType="Resource">
                           <xapG:swatchName>Charcoal</xapG:swatchName>
                           <xapG:mode>RGB</xapG:mode>
                           <xapG:type>PROCESS</xapG:type>
                           <xapG:red>98</xapG:red>
                           <xapG:green>99</xapG:green>
                           <xapG:blue>102</xapG:blue>
                        </rdf:li>
                        <rdf:li rdf:parseType="Resource">
                           <xapG:swatchName>Graphite</xapG:swatchName>
                           <xapG:mode>RGB</xapG:mode>
                           <xapG:type>PROCESS</xapG:type>
                           <xapG:red>128</xapG:red>
                           <xapG:green>129</xapG:green>
                           <xapG:blue>131</xapG:blue>
                        </rdf:li>
                        <rdf:li rdf:parseType="Resource">
                           <xapG:swatchName>Ash</xapG:swatchName>
                           <xapG:mode>RGB</xapG:mode>
                           <xapG:type>PROCESS</xapG:type>
                           <xapG:red>156</xapG:red>
                           <xapG:green>158</xapG:green>
                           <xapG:blue>160</xapG:blue>
                        </rdf:li>
                        <rdf:li rdf:parseType="Resource">
                           <xapG:swatchName>Smoke</xapG:swatchName>
                           <xapG:mode>RGB</xapG:mode>
                           <xapG:type>PROCESS</xapG:type>
                           <xapG:red>187</xapG:red>
                           <xapG:green>189</xapG:green>
                           <xapG:blue>191</xapG:blue>
                        </rdf:li>
                        <rdf:li rdf:parseType="Resource">
                           <xapG:swatchName>Latte</xapG:swatchName>
                           <xapG:mode>RGB</xapG:mode>
                           <xapG:type>PROCESS</xapG:type>
                           <xapG:red>227</xapG:red>
                           <xapG:green>195</xapG:green>
                           <xapG:blue>167</xapG:blue>
                        </rdf:li>
                        <rdf:li rdf:parseType="Resource">
                           <xapG:swatchName>Capuccino</xapG:swatchName>
                           <xapG:mode>RGB</xapG:mode>
                           <xapG:type>PROCESS</xapG:type>
                           <xapG:red>214</xapG:red>
                           <xapG:green>164</xapG:green>
                           <xapG:blue>119</xapG:blue>
                        </rdf:li>
                        <rdf:li rdf:parseType="Resource">
                           <xapG:swatchName>Mochaccino</xapG:swatchName>
                           <xapG:mode>RGB</xapG:mode>
                           <xapG:type>PROCESS</xapG:type>
                           <xapG:red>150</xapG:red>
                           <xapG:green>115</xapG:green>
                           <xapG:blue>72</xapG:blue>
                        </rdf:li>
                        <rdf:li rdf:parseType="Resource">
                           <xapG:swatchName>Mocha</xapG:swatchName>
                           <xapG:mode>RGB</xapG:mode>
                           <xapG:type>PROCESS</xapG:type>
                           <xapG:red>108</xapG:red>
                           <xapG:green>86</xapG:green>
                           <xapG:blue>53</xapG:blue>
                        </rdf:li>
                        <rdf:li rdf:parseType="Resource">
                           <xapG:swatchName>Mars Red</xapG:swatchName>
                           <xapG:mode>RGB</xapG:mode>
                           <xapG:type>PROCESS</xapG:type>
                           <xapG:red>150</xapG:red>
                           <xapG:green>27</xapG:green>
                           <xapG:blue>30</xapG:blue>
                        </rdf:li>
                        <rdf:li rdf:parseType="Resource">
                           <xapG:swatchName>Ruby</xapG:swatchName>
                           <xapG:mode>RGB</xapG:mode>
                           <xapG:type>PROCESS</xapG:type>
                           <xapG:red>191</xapG:red>
                           <xapG:green>39</xapG:green>
                           <xapG:blue>45</xapG:blue>
                        </rdf:li>
                        <rdf:li rdf:parseType="Resource">
                           <xapG:swatchName>Red</xapG:swatchName>
                           <xapG:mode>RGB</xapG:mode>
                           <xapG:type>PROCESS</xapG:type>
                           <xapG:red>236</xapG:red>
                           <xapG:green>28</xapG:green>
                           <xapG:blue>36</xapG:blue>
                        </rdf:li>
                        <rdf:li rdf:parseType="Resource">
                           <xapG:swatchName>Pumpkin</xapG:swatchName>
                           <xapG:mode>RGB</xapG:mode>
                           <xapG:type>PROCESS</xapG:type>
                           <xapG:red>241</xapG:red>
                           <xapG:green>100</xapG:green>
                           <xapG:blue>34</xapG:blue>
                        </rdf:li>
                        <rdf:li rdf:parseType="Resource">
                           <xapG:swatchName>Squash</xapG:swatchName>
                           <xapG:mode>RGB</xapG:mode>
                           <xapG:type>PROCESS</xapG:type>
                           <xapG:red>246</xapG:red>
                           <xapG:green>146</xapG:green>
                           <xapG:blue>29</xapG:blue>
                        </rdf:li>
                        <rdf:li rdf:parseType="Resource">
                           <xapG:swatchName>Sunshine</xapG:swatchName>
                           <xapG:mode>RGB</xapG:mode>
                           <xapG:type>PROCESS</xapG:type>
                           <xapG:red>255</xapG:red>
                           <xapG:green>193</xapG:green>
                           <xapG:blue>14</xapG:blue>
                        </rdf:li>
                        <rdf:li rdf:parseType="Resource">
                           <xapG:swatchName>Pure Yellow</xapG:swatchName>
                           <xapG:mode>RGB</xapG:mode>
                           <xapG:type>PROCESS</xapG:type>
                           <xapG:red>255</xapG:red>
                           <xapG:green>241</xapG:green>
                           <xapG:blue>0</xapG:blue>
                        </rdf:li>
                        <rdf:li rdf:parseType="Resource">
                           <xapG:swatchName>Peridot</xapG:swatchName>
                           <xapG:mode>RGB</xapG:mode>
                           <xapG:type>PROCESS</xapG:type>
                           <xapG:red>201</xapG:red>
                           <xapG:green>218</xapG:green>
                           <xapG:blue>42</xapG:blue>
                        </rdf:li>
                        <rdf:li rdf:parseType="Resource">
                           <xapG:swatchName>Little Sprout Green</xapG:swatchName>
                           <xapG:mode>RGB</xapG:mode>
                           <xapG:type>PROCESS</xapG:type>
                           <xapG:red>139</xapG:red>
                           <xapG:green>197</xapG:green>
                           <xapG:blue>63</xapG:blue>
                        </rdf:li>
                        <rdf:li rdf:parseType="Resource">
                           <xapG:swatchName>Jade</xapG:swatchName>
                           <xapG:mode>RGB</xapG:mode>
                           <xapG:type>PROCESS</xapG:type>
                           <xapG:red>108</xapG:red>
                           <xapG:green>156</xapG:green>
                           <xapG:blue>49</xapG:blue>
                        </rdf:li>
                        <rdf:li rdf:parseType="Resource">
                           <xapG:swatchName>Mint Julep</xapG:swatchName>
                           <xapG:mode>RGB</xapG:mode>
                           <xapG:type>PROCESS</xapG:type>
                           <xapG:red>38</xapG:red>
                           <xapG:green>143</xapG:green>
                           <xapG:blue>58</xapG:blue>
                        </rdf:li>
                        <rdf:li rdf:parseType="Resource">
                           <xapG:swatchName>Emerald</xapG:swatchName>
                           <xapG:mode>RGB</xapG:mode>
                           <xapG:type>PROCESS</xapG:type>
                           <xapG:red>0</xapG:red>
                           <xapG:green>110</xapG:green>
                           <xapG:blue>58</xapG:blue>
                        </rdf:li>
                        <rdf:li rdf:parseType="Resource">
                           <xapG:swatchName>Sea Green</xapG:swatchName>
                           <xapG:mode>RGB</xapG:mode>
                           <xapG:type>PROCESS</xapG:type>
                           <xapG:red>0</xapG:red>
                           <xapG:green>112</xapG:green>
                           <xapG:blue>112</xapG:blue>
                        </rdf:li>
                        <rdf:li rdf:parseType="Resource">
                           <xapG:swatchName>Caribbean Blue</xapG:swatchName>
                           <xapG:mode>RGB</xapG:mode>
                           <xapG:type>PROCESS</xapG:type>
                           <xapG:red>0</xapG:red>
                           <xapG:green>141</xapG:green>
                           <xapG:blue>174</xapG:blue>
                        </rdf:li>
                        <rdf:li rdf:parseType="Resource">
                           <xapG:swatchName>Pure Cyan</xapG:swatchName>
                           <xapG:mode>RGB</xapG:mode>
                           <xapG:type>PROCESS</xapG:type>
                           <xapG:red>0</xapG:red>
                           <xapG:green>172</xapG:green>
                           <xapG:blue>238</xapG:blue>
                        </rdf:li>
                        <rdf:li rdf:parseType="Resource">
                           <xapG:swatchName>Hawaiian Blue</xapG:swatchName>
                           <xapG:mode>RGB</xapG:mode>
                           <xapG:type>PROCESS</xapG:type>
                           <xapG:red>0</xapG:red>
                           <xapG:green>142</xapG:green>
                           <xapG:blue>211</xapG:blue>
                        </rdf:li>
                        <rdf:li rdf:parseType="Resource">
                           <xapG:swatchName>Twillight Blue</xapG:swatchName>
                           <xapG:mode>RGB</xapG:mode>
                           <xapG:type>PROCESS</xapG:type>
                           <xapG:red>0</xapG:red>
                           <xapG:green>113</xapG:green>
                           <xapG:blue>187</xapG:blue>
                        </rdf:li>
                        <rdf:li rdf:parseType="Resource">
                           <xapG:swatchName>Starry Night Blue</xapG:swatchName>
                           <xapG:mode>RGB</xapG:mode>
                           <xapG:type>PROCESS</xapG:type>
                           <xapG:red>0</xapG:red>
                           <xapG:green>84</xapG:green>
                           <xapG:blue>165</xapG:blue>
                        </rdf:li>
                        <rdf:li rdf:parseType="Resource">
                           <xapG:swatchName>Deep Sea Blue</xapG:swatchName>
                           <xapG:mode>RGB</xapG:mode>
                           <xapG:type>PROCESS</xapG:type>
                           <xapG:red>46</xapG:red>
                           <xapG:green>49</xapG:green>
                           <xapG:blue>145</xapG:blue>
                        </rdf:li>
                        <rdf:li rdf:parseType="Resource">
                           <xapG:swatchName>Fresh Lavender</xapG:swatchName>
                           <xapG:mode>RGB</xapG:mode>
                           <xapG:type>PROCESS</xapG:type>
                           <xapG:red>90</xapG:red>
                           <xapG:green>87</xapG:green>
                           <xapG:blue>164</xapG:blue>
                        </rdf:li>
                        <rdf:li rdf:parseType="Resource">
                           <xapG:swatchName>Purple</xapG:swatchName>
                           <xapG:mode>RGB</xapG:mode>
                           <xapG:type>PROCESS</xapG:type>
                           <xapG:red>101</xapG:red>
                           <xapG:green>45</xapG:green>
                           <xapG:blue>144</xapG:blue>
                        </rdf:li>
                        <rdf:li rdf:parseType="Resource">
                           <xapG:swatchName>Amethyst</xapG:swatchName>
                           <xapG:mode>RGB</xapG:mode>
                           <xapG:type>PROCESS</xapG:type>
                           <xapG:red>144</xapG:red>
                           <xapG:green>39</xapG:green>
                           <xapG:blue>142</xapG:blue>
                        </rdf:li>
                        <rdf:li rdf:parseType="Resource">
                           <xapG:swatchName>Rasberry</xapG:swatchName>
                           <xapG:mode>RGB</xapG:mode>
                           <xapG:type>PROCESS</xapG:type>
                           <xapG:red>188</xapG:red>
                           <xapG:green>26</xapG:green>
                           <xapG:blue>140</xapG:blue>
                        </rdf:li>
                        <rdf:li rdf:parseType="Resource">
                           <xapG:swatchName>Pure Magenta</xapG:swatchName>
                           <xapG:mode>RGB</xapG:mode>
                           <xapG:type>PROCESS</xapG:type>
                           <xapG:red>235</xapG:red>
                           <xapG:green>0</xapG:green>
                           <xapG:blue>139</xapG:blue>
                        </rdf:li>
                        <rdf:li rdf:parseType="Resource">
                           <xapG:swatchName>Global Red</xapG:swatchName>
                           <xapG:type>PROCESS</xapG:type>
                           <xapG:tint>100.000000</xapG:tint>
                           <xapG:mode>RGB</xapG:mode>
                           <xapG:red>237</xapG:red>
                           <xapG:green>28</xapG:green>
                           <xapG:blue>35</xapG:blue>
                        </rdf:li>
                        <rdf:li rdf:parseType="Resource">
                           <xapG:swatchName>Global Squash</xapG:swatchName>
                           <xapG:type>PROCESS</xapG:type>
                           <xapG:tint>100.000000</xapG:tint>
                           <xapG:mode>RGB</xapG:mode>
                           <xapG:red>246</xapG:red>
                           <xapG:green>147</xapG:green>
                           <xapG:blue>28</xapG:blue>
                        </rdf:li>
                        <rdf:li rdf:parseType="Resource">
                           <xapG:swatchName>Global Pure Yellow</xapG:swatchName>
                           <xapG:type>PROCESS</xapG:type>
                           <xapG:tint>100.000000</xapG:tint>
                           <xapG:mode>RGB</xapG:mode>
                           <xapG:red>255</xapG:red>
                           <xapG:green>242</xapG:green>
                           <xapG:blue>0</xapG:blue>
                        </rdf:li>
                        <rdf:li rdf:parseType="Resource">
                           <xapG:swatchName>Global Green</xapG:swatchName>
                           <xapG:type>PROCESS</xapG:type>
                           <xapG:tint>100.000000</xapG:tint>
                           <xapG:mode>RGB</xapG:mode>
                           <xapG:red>12</xapG:red>
                           <xapG:green>177</xapG:green>
                           <xapG:blue>75</xapG:blue>
                        </rdf:li>
                        <rdf:li rdf:parseType="Resource">
                           <xapG:swatchName>Global Pure Cyan</xapG:swatchName>
                           <xapG:type>PROCESS</xapG:type>
                           <xapG:tint>100.000000</xapG:tint>
                           <xapG:mode>RGB</xapG:mode>
                           <xapG:red>0</xapG:red>
                           <xapG:green>172</xapG:green>
                           <xapG:blue>239</xapG:blue>
                        </rdf:li>
                        <rdf:li rdf:parseType="Resource">
                           <xapG:swatchName>Global Deep Sea Blue</xapG:swatchName>
                           <xapG:type>PROCESS</xapG:type>
                           <xapG:tint>100.000000</xapG:tint>
                           <xapG:mode>RGB</xapG:mode>
                           <xapG:red>45</xapG:red>
                           <xapG:green>49</xapG:green>
                           <xapG:blue>145</xapG:blue>
                        </rdf:li>
                        <rdf:li rdf:parseType="Resource">
                           <xapG:swatchName>Mosaic blue #6895A2</xapG:swatchName>
                           <xapG:type>SPOT</xapG:type>
                           <xapG:tint>100.000000</xapG:tint>
                           <xapG:mode>CMYK</xapG:mode>
                           <xapG:cyan>59.209996</xapG:cyan>
                           <xapG:magenta>41.569999</xapG:magenta>
                           <xapG:yellow>36.469999</xapG:yellow>
                           <xapG:black>0.000000</xapG:black>
                        </rdf:li>
                        <rdf:li rdf:parseType="Resource">
                           <xapG:swatchName>Mosaic web grey #666666</xapG:swatchName>
                           <xapG:type>SPOT</xapG:type>
                           <xapG:tint>100.000000</xapG:tint>
                           <xapG:mode>CMYK</xapG:mode>
                           <xapG:cyan>0.000000</xapG:cyan>
                           <xapG:magenta>0.000000</xapG:magenta>
                           <xapG:yellow>0.000000</xapG:yellow>
                           <xapG:black>60.000002</xapG:black>
                        </rdf:li>
                        <rdf:li rdf:parseType="Resource">
                           <xapG:swatchName>Mosaic blue</xapG:swatchName>
                           <xapG:mode>RGB</xapG:mode>
                           <xapG:type>PROCESS</xapG:type>
                           <xapG:red>104</xapG:red>
                           <xapG:green>147</xapG:green>
                           <xapG:blue>160</xapG:blue>
                        </rdf:li>
                        <rdf:li rdf:parseType="Resource">
                           <xapG:swatchName>Mosaic grey</xapG:swatchName>
                           <xapG:mode>RGB</xapG:mode>
                           <xapG:type>PROCESS</xapG:type>
                           <xapG:red>102</xapG:red>
                           <xapG:green>102</xapG:green>
                           <xapG:blue>103</xapG:blue>
                        </rdf:li>
                     </rdf:Seq>
                  </xapG:Colorants>
               </rdf:li>
            </rdf:Seq>
         </xapTPg:SwatchGroups>
      </rdf:Description>
   </rdf:RDF>
</x:xmpmeta>
                                                                                                    
                                                                                                    
                                                                                                    
                                                                                                    
                                                                                                    
                                                                                                    
                                                                                                    
                                                                                                    
                                                                                                    
                                                                                                    
                                                                                                    
                                                                                                    
                                                                                                    
                                                                                                    
                                                                                                    
                                                                                                    
                                                                                                    
                                                                                                    
                                                                                                    
                                                                                                    
                           
<?xpacket end="w"?>
	</metadata>
<g>
	<path fill="#6893A0" d="M105.199,1.451c0.297-0.11,0.594-0.204,0.892-0.28l0.104,0.409c15.467,2.128,36.689,10.897,39.794,35.264
		c1.599,12.542-8.091,24.817-8.149,24.886s-0.326,0.228-0.369,0.228h-8.9c-0.137,0.003-0.162-0.179-0.143-0.228
		c0.032-0.079,4.697-11.951,1.264-20.536c-0.379-0.945,11.451,2.262,12.098-5.23c0.086-0.984-7.246,2.772-16.865-3.509
		c-1.133-0.74-5.846,6.139-5.846,6.139s-4.604,6.213-3.005,23.136c0.005,0.047-0.135,0.128-0.255,0.128l-11.527,0.006
		c-0.112-0.072,2.425-11.524,0.447-14.491c-0.587-0.88-11.91,4.03-22.181,2.582c-1.05-0.148,0.77,11.81,0.774,11.848l-12.997,0.156
		c-0.026,0-0.104-0.139-0.1-0.171c0.008-0.066,1.954-11.502,0.791-12.968s-8.126-3.49-8.126-3.49
		c-2.519,2.095-0.587,15.232-0.587,15.232s-9.947-8.06-8.191-26.64C55.61,18.174,75.076,2.317,95.99,1.092
		C98.534,0.943,101.7,1.027,105.199,1.451z"/>
	<g>
		<path fill="none" stroke="#666667" stroke-width="2.0479" stroke-miterlimit="3.8637" d="M145.989,36.844
			c1.599,12.542-8.091,24.817-8.149,24.886s-0.326,0.228-0.369,0.228c-0.115,0-8.77,0-8.9,0c-0.137,0.003-0.162-0.179-0.143-0.228
			c0.032-0.079,4.697-11.951,1.264-20.536c-0.379-0.945,11.451,2.262,12.098-5.23c0.086-0.984-7.246,2.772-16.865-3.509
			c-1.133-0.74-5.846,6.139-5.846,6.139s-4.604,6.213-3.005,23.136c0.005,0.047-0.135,0.128-0.255,0.128
			c-1.748-0.004-10.64,0.005-11.527,0.006c-0.047,0-0.115-0.025-0.113-0.059c0.001-0.014,2.538-11.466,0.561-14.433
			c-0.587-0.88-11.91,4.03-22.181,2.582c-1.05-0.148,0.77,11.81,0.774,11.848c0.005,0.046-0.016,0.156-0.042,0.156
			c-0.079,0-12.955,0-12.955,0c-0.026,0-0.104-0.139-0.1-0.171c0.008-0.066,1.954-11.502,0.791-12.968s-8.126-3.49-8.126-3.49
			c-2.519,2.095-0.587,15.232-0.587,15.232s-9.947-8.06-8.191-26.64C55.61,18.174,75.076,2.317,95.99,1.092
			C109.829,0.282,142.104,6.343,145.989,36.844z"/>
	</g>
	<g>
		<path fill="none" stroke="#666667" stroke-width="2.0479" stroke-linecap="round" stroke-miterlimit="3.8637" d="M123.319,18.765
			c-1.722,5.396-7.028,9.326-13.298,9.326c-7.666,0-13.879-5.875-13.879-13.122c0-5.479,5.061-12.032,10.072-13.313"/>
	</g>
</g>
<g>
	<polygon fill="#666667" points="11.267,81.434 0,81.434 0,65.861 11.267,65.861 11.267,68.881 4.027,68.881 4.027,71.559 
		10.752,71.559 10.752,74.578 4.027,74.578 4.027,78.413 11.267,78.413 	"/>
	<polygon fill="#666667" points="17.352,81.434 13.582,85.182 13.582,65.154 17.352,61.383 	"/>
	<path fill="#666667" d="M31.618,76.271h-8.61c0.056,0.922,0.406,1.627,1.051,2.115c0.645,0.488,1.595,0.732,2.85,0.732
		c0.794,0,1.564-0.145,2.31-0.436c0.746-0.29,1.335-0.602,1.767-0.935h0.418v3.03c-0.851,0.342-1.653,0.59-2.406,0.744
		c-0.753,0.154-1.586,0.23-2.5,0.23c-2.357,0-4.164-0.529-5.419-1.59c-1.255-1.059-1.883-2.568-1.883-4.527
		c0-1.938,0.594-3.473,1.783-4.606c1.188-1.133,2.818-1.699,4.889-1.699c1.91,0,3.346,0.483,4.309,1.45
		c0.962,0.966,1.443,2.356,1.443,4.171V76.271z M27.869,74.064c-0.021-0.789-0.215-1.383-0.584-1.78s-0.943-0.597-1.722-0.597
		c-0.723,0-1.318,0.188-1.784,0.565c-0.466,0.377-0.727,0.981-0.783,1.812H27.869z"/>
	<path fill="#666667" d="M45.713,75.406c0,0.969-0.148,1.851-0.445,2.645c-0.297,0.795-0.686,1.45-1.168,1.966
		c-0.502,0.544-1.071,0.955-1.707,1.233c-0.635,0.279-1.316,0.418-2.042,0.418c-0.67,0-1.239-0.07-1.707-0.214
		c-0.468-0.143-0.946-0.343-1.435-0.601v4.885l-3.77,3.735V69.695h3.77v1.224c0.58-0.46,1.171-0.833,1.775-1.118
		c0.604-0.284,1.3-0.427,2.089-0.427c1.466,0,2.606,0.536,3.419,1.61C45.307,72.057,45.713,73.531,45.713,75.406z M41.815,75.486
		c0-1.144-0.195-1.974-0.585-2.489c-0.39-0.517-1.006-0.774-1.848-0.774c-0.355,0-0.721,0.055-1.097,0.162
		c-0.376,0.108-0.734,0.264-1.076,0.465v5.911c0.251,0.099,0.519,0.161,0.804,0.188c0.286,0.027,0.567,0.042,0.846,0.042
		c0.995,0,1.737-0.291,2.224-0.874C41.571,77.535,41.815,76.658,41.815,75.486z"/>
	<path fill="#666667" d="M59.322,81.434h-3.77v-5.82c0-0.475-0.024-0.945-0.073-1.416c-0.048-0.471-0.132-0.816-0.25-1.039
		c-0.139-0.258-0.343-0.446-0.611-0.564c-0.268-0.119-0.642-0.178-1.123-0.178c-0.341,0-0.688,0.055-1.04,0.166
		c-0.352,0.112-0.733,0.29-1.144,0.533v8.318h-3.77V65.154l3.77-3.713v9.553c0.667-0.523,1.309-0.924,1.924-1.202
		c0.616-0.278,1.299-0.418,2.05-0.418c1.266,0,2.255,0.369,2.967,1.107c0.713,0.739,1.069,1.843,1.069,3.313V81.434z"/>
	<path fill="#666667" d="M69.059,78.365v-2.459c-0.505,0.043-1.053,0.1-1.641,0.174c-0.589,0.073-1.035,0.159-1.34,0.258
		c-0.374,0.119-0.66,0.293-0.857,0.52c-0.197,0.229-0.296,0.527-0.296,0.898c0,0.245,0.021,0.444,0.062,0.599
		c0.042,0.153,0.146,0.302,0.312,0.441c0.159,0.14,0.35,0.243,0.571,0.31c0.222,0.066,0.568,0.1,1.039,0.1
		c0.374,0,0.753-0.076,1.137-0.23S68.768,78.617,69.059,78.365z M69.059,80.188c-0.202,0.153-0.452,0.339-0.751,0.554
		c-0.299,0.217-0.581,0.388-0.845,0.514c-0.368,0.168-0.75,0.293-1.147,0.375s-0.831,0.123-1.304,0.123
		c-1.113,0-2.044-0.346-2.795-1.037c-0.75-0.693-1.126-1.577-1.126-2.654c0-0.859,0.191-1.563,0.573-2.107
		c0.383-0.545,0.925-0.975,1.627-1.289c0.695-0.314,1.558-0.539,2.586-0.672c1.029-0.133,2.096-0.23,3.202-0.293v-0.063
		c0-0.648-0.264-1.098-0.792-1.344c-0.528-0.248-1.306-0.372-2.334-0.372c-0.618,0-1.278,0.11-1.98,0.329s-1.206,0.389-1.511,0.506
		h-0.344v-2.84c0.396-0.104,1.041-0.229,1.935-0.372c0.893-0.144,1.788-0.215,2.685-0.215c2.134,0,3.676,0.33,4.625,0.99
		s1.423,1.696,1.423,3.106v8.006h-3.727V80.188z"/>
	<path fill="#666667" d="M87.168,81.434h-3.77v-5.82c0-0.475-0.024-0.945-0.073-1.416s-0.132-0.816-0.251-1.039
		c-0.139-0.258-0.343-0.446-0.611-0.564c-0.268-0.119-0.642-0.178-1.123-0.178c-0.341,0-0.688,0.055-1.039,0.166
		c-0.352,0.112-0.733,0.29-1.144,0.533v8.318h-3.77V69.695h3.77v1.299c0.667-0.523,1.309-0.924,1.925-1.202
		c0.615-0.278,1.298-0.418,2.049-0.418c1.266,0,2.255,0.369,2.968,1.107c0.713,0.739,1.069,1.843,1.069,3.313V81.434z"/>
	<path fill="#666667" d="M97.312,81.334c-0.405,0.105-0.835,0.188-1.289,0.246s-1.009,0.088-1.666,0.088
		c-1.467,0-2.559-0.295-3.274-0.889c-0.717-0.592-1.074-1.607-1.074-3.044v-5.491h-1.543v-2.549h1.543v-3.363l3.77-3.719v7.082
		h3.534v2.549h-3.534v4.172c0,0.412,0.004,0.771,0.011,1.079s0.063,0.583,0.167,0.828c0.099,0.245,0.271,0.438,0.52,0.581
		c0.248,0.145,0.61,0.215,1.086,0.215c0.195,0,0.452-0.042,0.771-0.128c0.318-0.085,0.54-0.164,0.666-0.235h0.314V81.334z"/>
	<path fill="#6893A0" d="M117.834,76.537c0,1.533-0.65,2.779-1.949,3.737s-3.063,1.437-5.293,1.437
		c-1.288,0-2.411-0.112-3.369-0.338c-0.957-0.227-1.854-0.514-2.69-0.861v-3.727h0.438c0.828,0.661,1.756,1.169,2.783,1.523
		c1.025,0.355,2.013,0.533,2.959,0.533c0.244,0,0.564-0.021,0.961-0.063s0.721-0.112,0.971-0.21
		c0.307-0.125,0.559-0.283,0.758-0.471c0.198-0.189,0.297-0.469,0.297-0.839c0-0.342-0.145-0.636-0.434-0.884
		c-0.289-0.247-0.712-0.438-1.27-0.569c-0.585-0.14-1.203-0.271-1.855-0.392c-0.65-0.123-1.262-0.277-1.834-0.465
		c-1.31-0.426-2.252-1.002-2.826-1.73c-0.575-0.729-0.863-1.633-0.863-2.713c0-1.449,0.65-2.633,1.95-3.549s2.97-1.375,5.011-1.375
		c1.025,0,2.037,0.1,3.037,0.299c1,0.198,1.865,0.447,2.598,0.746v3.582h-0.429c-0.626-0.498-1.394-0.916-2.304-1.252
		c-0.908-0.336-1.836-0.504-2.783-0.504c-0.334,0-0.667,0.022-0.998,0.067c-0.33,0.045-0.648,0.13-0.955,0.255
		c-0.271,0.104-0.505,0.262-0.699,0.475c-0.195,0.211-0.293,0.453-0.293,0.723c0,0.412,0.156,0.727,0.471,0.946
		c0.313,0.22,0.905,0.42,1.776,0.601c0.571,0.119,1.12,0.234,1.646,0.346c0.526,0.111,1.092,0.265,1.698,0.459
		c1.191,0.391,2.071,0.922,2.64,1.595C117.55,74.592,117.834,75.465,117.834,76.537z"/>
	<path fill="#6893A0" d="M127.049,81.334c-0.406,0.105-0.836,0.188-1.289,0.246c-0.455,0.059-1.01,0.088-1.666,0.088
		c-1.468,0-2.559-0.295-3.275-0.889c-0.716-0.592-1.074-1.607-1.074-3.044v-5.491h-1.542v-2.549h1.542v-3.363l3.77-3.719v7.082
		h3.535v2.549h-3.535v4.172c0,0.412,0.004,0.771,0.012,1.079c0.006,0.308,0.063,0.583,0.167,0.828
		c0.099,0.245,0.271,0.438,0.519,0.581c0.248,0.145,0.61,0.215,1.086,0.215c0.195,0,0.453-0.042,0.771-0.128
		c0.317-0.085,0.539-0.164,0.666-0.235h0.314V81.334z"/>
	<path fill="#6893A0" d="M140.458,75.569c0,1.93-0.563,3.45-1.69,4.562s-2.709,1.666-4.746,1.666s-3.619-0.555-4.746-1.666
		s-1.69-2.632-1.69-4.562c0-1.943,0.567-3.47,1.7-4.577c1.135-1.107,2.713-1.661,4.736-1.661c2.052,0,3.637,0.558,4.757,1.672
		S140.458,73.64,140.458,75.569z M135.826,78.412c0.244-0.298,0.428-0.657,0.55-1.077c0.122-0.421,0.184-1.002,0.184-1.745
		c0-0.688-0.063-1.264-0.188-1.729s-0.301-0.837-0.524-1.114c-0.224-0.285-0.493-0.486-0.808-0.604
		c-0.314-0.117-0.654-0.177-1.018-0.177s-0.688,0.048-0.971,0.146s-0.554,0.291-0.813,0.584c-0.23,0.27-0.414,0.642-0.551,1.113
		c-0.136,0.473-0.204,1.066-0.204,1.781c0,0.639,0.06,1.193,0.179,1.662s0.293,0.845,0.524,1.129
		c0.224,0.271,0.491,0.469,0.802,0.594c0.312,0.125,0.666,0.188,1.064,0.188c0.344,0,0.67-0.057,0.98-0.172
		C135.346,78.876,135.609,78.684,135.826,78.412z"/>
	<path fill="#6893A0" d="M154.068,81.434h-3.77v-5.82c0-0.475-0.023-0.945-0.072-1.416s-0.133-0.816-0.252-1.039
		c-0.139-0.258-0.342-0.446-0.61-0.564c-0.269-0.119-0.643-0.178-1.123-0.178c-0.341,0-0.688,0.055-1.039,0.166
		c-0.353,0.112-0.733,0.29-1.144,0.533v8.318h-3.77V69.695h3.77v1.299c0.667-0.523,1.309-0.924,1.924-1.202s1.299-0.418,2.051-0.418
		c1.265,0,2.254,0.369,2.967,1.107c0.713,0.739,1.068,1.843,1.068,3.313V81.434z"/>
	<path fill="#6893A0" d="M168.262,76.271h-8.611c0.057,0.922,0.406,1.627,1.051,2.115s1.596,0.732,2.85,0.732
		c0.795,0,1.564-0.145,2.311-0.436c0.746-0.29,1.335-0.602,1.768-0.935h0.418v3.03c-0.852,0.342-1.652,0.59-2.406,0.744
		c-0.753,0.154-1.586,0.23-2.5,0.23c-2.357,0-4.164-0.529-5.42-1.59c-1.255-1.059-1.883-2.568-1.883-4.527
		c0-1.938,0.595-3.473,1.783-4.606c1.188-1.133,2.818-1.699,4.889-1.699c1.91,0,3.346,0.483,4.309,1.45
		c0.962,0.966,1.443,2.356,1.443,4.171V76.271z M164.513,74.064c-0.021-0.789-0.216-1.383-0.584-1.78s-0.942-0.597-1.722-0.597
		c-0.724,0-1.318,0.188-1.784,0.565s-0.728,0.981-0.782,1.812H164.513z"/>
</g>
</svg>
